<?xml version="1.0" encoding="UTF-8" standalone="no"?>
<!DOCTYPE svg PUBLIC "-//W3C//DTD SVG 1.1//EN"
 "http://www.w3.org/Graphics/SVG/1.1/DTD/svg11.dtd">
<!-- Generated by graphviz version 14.0.2 (20251019.1705)
 -->
<!-- Title: OpenOx Pages: 1 -->
<svg width="1272pt" height="579pt"
 viewBox="0.00 0.00 1272.00 579.00" xmlns="http://www.w3.org/2000/svg" xmlns:xlink="http://www.w3.org/1999/xlink">
<g id="graph0" class="graph" transform="scale(1 1) rotate(0) translate(18 560.64)">
<title>OpenOx</title>
<polygon fill="white" stroke="none" points="-18,18 -18,-560.64 1253.55,-560.64 1253.55,18 -18,18"/>
<g id="clust1" class="cluster">
<title>cluster_host</title>
<polygon fill="white" stroke="#222222" points="286.46,-141.41 286.46,-534.64 967.46,-534.64 967.46,-141.41 286.46,-141.41"/>
<text xml:space="preserve" text-anchor="middle" x="323.71" y="-515.44" font-family="Arial" font-size="16.00">Ox Host</text>
</g>
<g id="clust2" class="cluster">
<title>cluster_interfaces</title>
<polygon fill="white" stroke="#222222" points="537.46,-8 537.46,-123.41 1057.46,-123.41 1057.46,-8 537.46,-8"/>
<text xml:space="preserve" text-anchor="middle" x="609.96" y="-104.21" font-family="Arial" font-size="16.00">Service interfaces</text>
</g>
<!-- client -->
<g id="node1" class="node">
<title>client</title>
<polygon fill="white" stroke="#222222" points="178.92,-487.89 0,-487.89 0,-439.23 178.92,-439.23 178.92,-487.89"/>
<text xml:space="preserve" text-anchor="middle" x="89.46" y="-466.41" font-family="Arial" font-size="12.00" fill="#171717">Ox Client</text>
<text xml:space="preserve" text-anchor="middle" x="89.46" y="-452.16" font-family="Arial" font-size="12.00" fill="#171717">Mobile · Desktop · Web · CLI</text>
</g>
<!-- host_api -->
<g id="node2" class="node">
<title>host_api</title>
<polygon fill="white" stroke="#222222" points="476.79,-487.89 306.12,-487.89 306.12,-439.23 476.79,-439.23 476.79,-487.89"/>
<text xml:space="preserve" text-anchor="middle" x="391.46" y="-466.41" font-family="Arial" font-size="12.00" fill="#171717">Ox Host API</text>
<text xml:space="preserve" text-anchor="middle" x="391.46" y="-452.16" font-family="Arial" font-size="12.00" fill="#171717">Chats · Services · Lifecycle</text>
</g>
<!-- client&#45;&gt;host_api -->
<g id="edge3" class="edge">
<title>client&#45;&gt;host_api</title>
<path fill="none" stroke="#111111" d="M186.83,-463.56C222.38,-463.56 262.5,-463.56 297.74,-463.56"/>
<polygon fill="#111111" stroke="#111111" points="187.27,-461.29 180.77,-463.56 187.27,-465.84 187.27,-461.29"/>
<polygon fill="#111111" stroke="#111111" points="297.63,-465.84 304.13,-463.56 297.63,-461.29 297.63,-465.84"/>
<text xml:space="preserve" text-anchor="middle" x="242.52" y="-481.06" font-family="Arial" font-size="10.00">in&#45;process</text>
<text xml:space="preserve" text-anchor="middle" x="242.52" y="-469.06" font-family="Arial" font-size="10.00">or remote</text>
</g>
<!-- agent -->
<g id="node3" class="node">
<title>agent</title>
<polygon fill="white" stroke="#222222" points="679.05,-487.89 539.88,-487.89 539.88,-439.23 679.05,-439.23 679.05,-487.89"/>
<text xml:space="preserve" text-anchor="middle" x="609.46" y="-466.41" font-family="Arial" font-size="12.00" fill="#171717">Ox Agent</text>
<text xml:space="preserve" text-anchor="middle" x="609.46" y="-452.16" font-family="Arial" font-size="12.00" fill="#171717">Reasoning · Tool use</text>
</g>
<!-- host_api&#45;&gt;agent -->
<g id="edge4" class="edge">
<title>host_api&#45;&gt;agent</title>
<path fill="none" stroke="#111111" d="M484.87,-463.56C500.55,-463.56 516.24,-463.56 531.93,-463.56"/>
<polygon fill="#111111" stroke="#111111" points="485.06,-461.29 478.56,-463.56 485.06,-465.84 485.06,-461.29"/>
<polygon fill="#111111" stroke="#111111" points="531.62,-465.84 538.12,-463.56 531.62,-461.29 531.62,-465.84"/>
</g>
<!-- model_adapter -->
<g id="node4" class="node">
<title>model_adapter</title>
<polygon fill="white" stroke="#222222" points="947.8,-487.89 777.12,-487.89 777.12,-439.23 947.8,-439.23 947.8,-487.89"/>
<text xml:space="preserve" text-anchor="middle" x="862.46" y="-466.41" font-family="Arial" font-size="12.00" fill="#171717">Model adapter</text>
<text xml:space="preserve" text-anchor="middle" x="862.46" y="-452.16" font-family="Arial" font-size="12.00" fill="#171717">Provider&#45;neutral agent loop</text>
</g>
<!-- agent&#45;&gt;model_adapter -->
<g id="edge5" class="edge">
<title>agent&#45;&gt;model_adapter</title>
<path fill="none" stroke="#111111" d="M687.15,-463.56C712.93,-463.56 741.91,-463.56 768.77,-463.56"/>
<polygon fill="#111111" stroke="#111111" points="687.28,-461.29 680.78,-463.56 687.28,-465.84 687.28,-461.29"/>
<polygon fill="#111111" stroke="#111111" points="768.64,-465.84 775.14,-463.56 768.64,-461.29 768.64,-465.84"/>
<text xml:space="preserve" text-anchor="middle" x="728.09" y="-469.06" font-family="Arial" font-size="10.00">provider&#45;neutral</text>
</g>
<!-- vm -->
<g id="node6" class="node">
<title>vm</title>
<polygon fill="white" stroke="#222222" points="768.8,-369.23 592.12,-369.23 592.12,-306.32 768.8,-306.32 768.8,-369.23"/>
<text xml:space="preserve" text-anchor="middle" x="680.46" y="-347.75" font-family="Arial" font-size="12.00" fill="#171717">Ox VM</text>
<text xml:space="preserve" text-anchor="middle" x="680.46" y="-333.5" font-family="Arial" font-size="12.00" fill="#171717">Sandboxed JavaScript · ox.*</text>
<text xml:space="preserve" text-anchor="middle" x="680.46" y="-319.25" font-family="Arial" font-size="12.00" fill="#171717">Skills · Virtual filesystem</text>
</g>
<!-- agent&#45;&gt;vm -->
<g id="edge7" class="edge">
<title>agent&#45;&gt;vm</title>
<path fill="none" stroke="#111111" d="M622.98,-438.99C633.18,-421.21 647.36,-396.49 659.08,-376.05"/>
<polygon fill="#111111" stroke="#111111" points="660.94,-377.38 662.2,-370.61 656.99,-375.12 660.94,-377.38"/>
<text xml:space="preserve" text-anchor="middle" x="700.84" y="-400.73" font-family="Arial" font-size="10.00">writes and executes code</text>
</g>
<!-- model -->
<g id="node9" class="node">
<title>model</title>
<polygon fill="white" stroke="#222222" points="1235.55,-487.89 1075.38,-487.89 1075.38,-439.23 1235.55,-439.23 1235.55,-487.89"/>
<text xml:space="preserve" text-anchor="middle" x="1155.46" y="-466.41" font-family="Arial" font-size="12.00" fill="#171717">Ox Model Provider</text>
<text xml:space="preserve" text-anchor="middle" x="1155.46" y="-452.16" font-family="Arial" font-size="12.00" fill="#171717">Any model · Any provider</text>
</g>
<!-- model_adapter&#45;&gt;model -->
<g id="edge6" class="edge">
<title>model_adapter&#45;&gt;model</title>
<path fill="none" stroke="#111111" d="M955.62,-463.56C991.41,-463.56 1032.13,-463.56 1067.43,-463.56"/>
<polygon fill="#111111" stroke="#111111" points="956.01,-461.29 949.51,-463.56 956.01,-465.84 956.01,-461.29"/>
<polygon fill="#111111" stroke="#111111" points="1067.33,-465.84 1073.83,-463.56 1067.33,-461.29 1067.33,-465.84"/>
<text xml:space="preserve" text-anchor="middle" x="1011.59" y="-469.06" font-family="Arial" font-size="10.00">provider API</text>
</g>
<!-- profile -->
<g id="node5" class="node">
<title>profile</title>
<polygon fill="white" stroke="#222222" points="462.29,-369.23 306.62,-369.23 306.62,-306.32 462.29,-306.32 462.29,-369.23"/>
<text xml:space="preserve" text-anchor="middle" x="384.46" y="-347.75" font-family="Arial" font-size="12.00" fill="#171717">Ox Profile</text>
<text xml:space="preserve" text-anchor="middle" x="384.46" y="-333.5" font-family="Arial" font-size="12.00" fill="#171717">Identity · Memory · Skills</text>
<text xml:space="preserve" text-anchor="middle" x="384.46" y="-319.25" font-family="Arial" font-size="12.00" fill="#171717">Artifacts · Conversations</text>
</g>
<!-- profile&#45;&gt;vm -->
<g id="edge8" class="edge">
<title>profile&#45;&gt;vm</title>
<path fill="none" stroke="#111111" d="M470.63,-337.77C506.13,-337.77 547.42,-337.77 583.94,-337.77"/>
<polygon fill="#111111" stroke="#111111" points="470.63,-335.5 464.13,-337.78 470.63,-340.05 470.63,-335.5"/>
<polygon fill="#111111" stroke="#111111" points="583.64,-340.05 590.14,-337.78 583.64,-335.5 583.64,-340.05"/>
<text xml:space="preserve" text-anchor="middle" x="527.21" y="-343.27" font-family="Arial" font-size="10.00">mounted through ox.fs</text>
</g>
<!-- local_repository -->
<g id="node7" class="node">
<title>local_repository</title>
<polygon fill="white" stroke="#222222" points="634.55,-224.32 456.38,-224.32 456.38,-161.41 634.55,-161.41 634.55,-224.32"/>
<text xml:space="preserve" text-anchor="middle" x="545.46" y="-202.84" font-family="Arial" font-size="12.00" fill="#171717">Local Repository</text>
<text xml:space="preserve" text-anchor="middle" x="545.46" y="-188.59" font-family="Arial" font-size="12.00" fill="#171717">Services · Skills</text>
<text xml:space="preserve" text-anchor="middle" x="545.46" y="-174.34" font-family="Arial" font-size="12.00" fill="#171717">Editable Git + repository.json</text>
</g>
<!-- vm&#45;&gt;local_repository -->
<g id="edge9" class="edge">
<title>vm&#45;&gt;local_repository</title>
<path fill="none" stroke="#111111" d="M651.5,-306.12C630.5,-283.89 602.02,-253.74 579.86,-230.28"/>
<polygon fill="#111111" stroke="#111111" points="581.53,-228.74 575.41,-225.57 578.22,-231.86 581.53,-228.74"/>
<text xml:space="preserve" text-anchor="middle" x="660.04" y="-267.82" font-family="Arial" font-size="10.00">creates or revises</text>
<text xml:space="preserve" text-anchor="middle" x="660.04" y="-255.82" font-family="Arial" font-size="10.00">via ox.fs</text>
</g>
<!-- services -->
<g id="node8" class="node">
<title>services</title>
<polygon fill="white" stroke="#222222" points="880.42,-224.32 758.5,-224.32 758.5,-161.41 880.42,-161.41 880.42,-224.32"/>
<text xml:space="preserve" text-anchor="middle" x="819.46" y="-202.84" font-family="Arial" font-size="12.00" fill="#171717">Catalog</text>
<text xml:space="preserve" text-anchor="middle" x="819.46" y="-188.59" font-family="Arial" font-size="12.00" fill="#171717">Services · Skills</text>
<text xml:space="preserve" text-anchor="middle" x="819.46" y="-174.34" font-family="Arial" font-size="12.00" fill="#171717">Resolved sources</text>
</g>
<!-- vm&#45;&gt;services -->
<g id="edge10" class="edge">
<title>vm&#45;&gt;services</title>
<path fill="none" stroke="#111111" d="M715.64,-300.6C736.63,-279.02 763.2,-251.71 784.2,-230.12"/>
<polygon fill="#111111" stroke="#111111" points="714.24,-298.79 711.33,-305.03 717.5,-301.96 714.24,-298.79"/>
<polygon fill="#111111" stroke="#111111" points="785.73,-231.8 788.64,-225.56 782.47,-228.63 785.73,-231.8"/>
<text xml:space="preserve" text-anchor="middle" x="792.41" y="-267.82" font-family="Arial" font-size="10.00">invokes actions</text>
<text xml:space="preserve" text-anchor="middle" x="792.41" y="-255.82" font-family="Arial" font-size="10.00">reads skills</text>
</g>
<!-- local_repository&#45;&gt;services -->
<g id="edge11" class="edge">
<title>local_repository&#45;&gt;services</title>
<path fill="none" stroke="#111111" d="M634.8,-192.87C672.4,-192.87 715.48,-192.87 750.56,-192.87"/>
<polygon fill="#111111" stroke="#111111" points="750.37,-195.14 756.87,-192.87 750.37,-190.59 750.37,-195.14"/>
<text xml:space="preserve" text-anchor="middle" x="696.52" y="-198.37" font-family="Arial" font-size="10.00">validates and reloads</text>
</g>
<!-- remote_repositories -->
<g id="node10" class="node">
<title>remote_repositories</title>
<polygon fill="white" stroke="#222222" points="1175.3,-217.2 1007.62,-217.2 1007.62,-168.53 1175.3,-168.53 1175.3,-217.2"/>
<text xml:space="preserve" text-anchor="middle" x="1091.46" y="-195.72" font-family="Arial" font-size="12.00" fill="#171717">Remote Repositories</text>
<text xml:space="preserve" text-anchor="middle" x="1091.46" y="-181.47" font-family="Arial" font-size="12.00" fill="#171717">Public Git + repository.json</text>
</g>
<!-- services&#45;&gt;remote_repositories -->
<g id="edge12" class="edge">
<title>services&#45;&gt;remote_repositories</title>
<path fill="none" stroke="#111111" d="M888.42,-192.87C924.59,-192.87 969.18,-192.87 1007.36,-192.87"/>
<polygon fill="#111111" stroke="#111111" points="888.85,-190.59 882.35,-192.87 888.85,-195.14 888.85,-190.59"/>
<text xml:space="preserve" text-anchor="middle" x="944.02" y="-198.37" font-family="Arial" font-size="10.00">installs</text>
</g>
<!-- device -->
<g id="node11" class="node">
<title>device</title>
<polygon fill="white" stroke="#222222" points="705.55,-76.66 557.38,-76.66 557.38,-28 705.55,-28 705.55,-76.66"/>
<text xml:space="preserve" text-anchor="middle" x="631.46" y="-55.18" font-family="Arial" font-size="12.00" fill="#171717">Device&#45;native interface</text>
<text xml:space="preserve" text-anchor="middle" x="631.46" y="-40.93" font-family="Arial" font-size="12.00" fill="#171717">(Device Service)</text>
</g>
<!-- services&#45;&gt;device -->
<g id="edge13" class="edge">
<title>services&#45;&gt;device</title>
<path fill="none" stroke="#111111" d="M777.74,-161.12C745.49,-137.35 701.2,-104.72 669.83,-81.6"/>
<polygon fill="#111111" stroke="#111111" points="671.53,-80.03 664.95,-78.01 668.83,-83.7 671.53,-80.03"/>
</g>
<!-- web -->
<g id="node12" class="node">
<title>web</title>
<polygon fill="white" stroke="#222222" points="870.3,-76.66 768.62,-76.66 768.62,-28 870.3,-28 870.3,-76.66"/>
<text xml:space="preserve" text-anchor="middle" x="819.46" y="-55.18" font-family="Arial" font-size="12.00" fill="#171717">Web page</text>
<text xml:space="preserve" text-anchor="middle" x="819.46" y="-40.93" font-family="Arial" font-size="12.00" fill="#171717">(Web Service)</text>
</g>
<!-- services&#45;&gt;web -->
<g id="edge14" class="edge">
<title>services&#45;&gt;web</title>
<path fill="none" stroke="#111111" d="M819.46,-161.12C819.46,-138.44 819.46,-107.69 819.46,-84.84"/>
<polygon fill="#111111" stroke="#111111" points="821.74,-85.12 819.46,-78.62 817.19,-85.12 821.74,-85.12"/>
</g>
<!-- mcp -->
<g id="node13" class="node">
<title>mcp</title>
<polygon fill="white" stroke="#222222" points="1037.05,-76.66 933.88,-76.66 933.88,-28 1037.05,-28 1037.05,-76.66"/>
<text xml:space="preserve" text-anchor="middle" x="985.46" y="-55.18" font-family="Arial" font-size="12.00" fill="#171717">MCP server</text>
<text xml:space="preserve" text-anchor="middle" x="985.46" y="-40.93" font-family="Arial" font-size="12.00" fill="#171717">(MCP Service)</text>
</g>
<!-- services&#45;&gt;mcp -->
<g id="edge15" class="edge">
<title>services&#45;&gt;mcp</title>
<path fill="none" stroke="#111111" d="M856.3,-161.12C884.54,-137.55 923.23,-105.26 950.89,-82.18"/>
<polygon fill="#111111" stroke="#111111" points="952.27,-83.99 955.8,-78.08 949.35,-80.5 952.27,-83.99"/>
</g>
<!-- device&#45;&gt;web -->
<!-- web&#45;&gt;mcp -->
</g>
</svg>
